<svg width="477" height="225" viewBox="0 0 477 225" fill="none" xmlns="http://www.w3.org/2000/svg">
<rect width="477" height="225" fill="#1E1E1E"/>
<rect width="477" height="225" rx="31" fill="white"/>
<path d="M245.87 86.37C244.69 86.37 243.65 86.6 242.75 87.06C241.85 87.5 241.27 88.08 241.01 88.8H239.66C239 87.18 237.45 86.37 235.01 86.37H231.26C229.44 86.37 228.13 85.96 227.33 85.14C226.51 84.32 226.1 83.02 226.1 81.24V79.98H228.08V81.33C228.08 82.21 228.28 82.85 228.68 83.25C229.08 83.65 229.73 83.85 230.63 83.85H235.85C236.69 83.85 237.47 84.03 238.19 84.39C238.89 84.75 239.61 85.33 240.35 86.13H240.56C241.36 85.31 242.1 84.73 242.78 84.39C243.46 84.03 244.19 83.85 244.97 83.85H250.52C251.44 83.85 252.1 83.65 252.5 83.25C252.92 82.85 253.13 82.21 253.13 81.33V79.98H255.11V81.36C255.11 83.18 254.72 84.47 253.94 85.23C253.16 85.99 251.83 86.37 249.95 86.37H245.87ZM249.95 65.4975C251.83 65.4975 253.16 65.8775 253.94 66.6375C254.72 67.3975 255.11 68.6875 255.11 70.5075V71.8875H253.13V70.5375C253.13 69.6575 252.92 69.0175 252.5 68.6175C252.1 68.2175 251.44 68.0175 250.52 68.0175H244.97C244.19 68.0175 243.46 67.8475 242.78 67.5075C242.1 67.1475 241.36 66.5575 240.56 65.7375H240.35C239.61 66.5375 238.89 67.1175 238.19 67.4775C237.47 67.8375 236.69 68.0175 235.85 68.0175H230.63C229.73 68.0175 229.08 68.2175 228.68 68.6175C228.28 69.0175 228.08 69.6575 228.08 70.5375V71.8875H226.1V70.6275C226.1 68.8275 226.51 67.5275 227.33 66.7275C228.13 65.9075 229.44 65.4975 231.26 65.4975H235.01C237.45 65.4975 239 64.6875 239.66 63.0675H241.01C241.27 63.7875 241.85 64.3775 242.75 64.8375C243.65 65.2775 244.69 65.4975 245.87 65.4975H249.95Z" fill="#FD8D6E"/>
<path d="M236.89 76.135C236.89 76.575 236.72 76.975 236.38 77.335C236.04 77.695 235.65 77.875 235.21 77.875C234.73 77.875 234.33 77.705 234.01 77.365C233.67 77.025 233.5 76.615 233.5 76.135C233.5 75.635 233.66 75.215 233.98 74.875C234.3 74.535 234.7 74.365 235.18 74.365C235.66 74.365 236.07 74.545 236.41 74.905C236.73 75.265 236.89 75.675 236.89 76.135ZM247.3 76.135C247.3 76.575 247.13 76.975 246.79 77.335C246.45 77.695 246.06 77.875 245.62 77.875C245.14 77.875 244.74 77.705 244.42 77.365C244.08 77.025 243.91 76.615 243.91 76.135C243.91 75.635 244.07 75.215 244.39 74.875C244.71 74.535 245.11 74.365 245.59 74.365C246.07 74.365 246.48 74.545 246.82 74.905C247.14 75.265 247.3 75.675 247.3 76.135Z" fill="#FD8D6E"/>
<path d="M57.52 185.2C51.2 185.2 46.36 183.4 43 179.8C39.72 176.2 38.08 171.12 38.08 164.56V119.44C38.08 112.88 39.72 107.8 43 104.2C46.36 100.6 51.2 98.8 57.52 98.8C63.84 98.8 68.64 100.6 71.92 104.2C75.28 107.8 76.96 112.88 76.96 119.44V128.32H64.48V118.6C64.48 113.4 62.28 110.8 57.88 110.8C53.48 110.8 51.28 113.4 51.28 118.6V165.52C51.28 170.64 53.48 173.2 57.88 173.2C62.28 173.2 64.48 170.64 64.48 165.52V152.68H76.96V164.56C76.96 171.12 75.28 176.2 71.92 179.8C68.64 183.4 63.84 185.2 57.52 185.2ZM110.172 185.2C103.692 185.2 98.7319 183.36 95.2919 179.68C91.8519 176 90.1319 170.8 90.1319 164.08V119.92C90.1319 113.2 91.8519 108 95.2919 104.32C98.7319 100.64 103.692 98.8 110.172 98.8C116.652 98.8 121.612 100.64 125.052 104.32C128.492 108 130.212 113.2 130.212 119.92V164.08C130.212 170.8 128.492 176 125.052 179.68C121.612 183.36 116.652 185.2 110.172 185.2ZM110.172 173.2C114.732 173.2 117.012 170.44 117.012 164.92V119.08C117.012 113.56 114.732 110.8 110.172 110.8C105.612 110.8 103.332 113.56 103.332 119.08V164.92C103.332 170.44 105.612 173.2 110.172 173.2ZM145.139 100H165.299C171.859 100 176.779 101.76 180.059 105.28C183.339 108.8 184.979 113.96 184.979 120.76V163.24C184.979 170.04 183.339 175.2 180.059 178.72C176.779 182.24 171.859 184 165.299 184H145.139V100ZM165.059 172C167.219 172 168.859 171.36 169.979 170.08C171.179 168.8 171.779 166.72 171.779 163.84V120.16C171.779 117.28 171.179 115.2 169.979 113.92C168.859 112.64 167.219 112 165.059 112H158.339V172H165.059ZM199.889 100H235.889V112H213.089V134.2H231.209V146.2H213.089V172H235.889V184H199.889V100ZM249.483 100H262.683V172H284.403V184H249.483V100ZM296.733 100H332.733V112H309.933V134.2H328.053V146.2H309.933V172H332.733V184H296.733V100ZM363.721 185.2C357.321 185.2 352.481 183.4 349.201 179.8C345.921 176.12 344.281 170.88 344.281 164.08V159.28H356.761V165.04C356.761 170.48 359.041 173.2 363.601 173.2C365.841 173.2 367.521 172.56 368.641 171.28C369.841 169.92 370.441 167.76 370.441 164.8C370.441 161.28 369.641 158.2 368.041 155.56C366.441 152.84 363.481 149.6 359.161 145.84C353.721 141.04 349.921 136.72 347.761 132.88C345.601 128.96 344.521 124.56 344.521 119.68C344.521 113.04 346.201 107.92 349.561 104.32C352.921 100.64 357.801 98.8 364.201 98.8C370.521 98.8 375.281 100.64 378.481 104.32C381.761 107.92 383.401 113.12 383.401 119.92V123.4H370.921V119.08C370.921 116.2 370.361 114.12 369.241 112.84C368.121 111.48 366.481 110.8 364.321 110.8C359.921 110.8 357.721 113.48 357.721 118.84C357.721 121.88 358.521 124.72 360.121 127.36C361.801 130 364.801 133.2 369.121 136.96C374.641 141.76 378.441 146.12 380.521 150.04C382.601 153.96 383.641 158.56 383.641 163.84C383.641 170.72 381.921 176 378.481 179.68C375.121 183.36 370.201 185.2 363.721 185.2ZM414.369 185.2C407.969 185.2 403.129 183.4 399.849 179.8C396.569 176.12 394.929 170.88 394.929 164.08V159.28H407.409V165.04C407.409 170.48 409.689 173.2 414.249 173.2C416.489 173.2 418.169 172.56 419.289 171.28C420.489 169.92 421.089 167.76 421.089 164.8C421.089 161.28 420.289 158.2 418.689 155.56C417.089 152.84 414.129 149.6 409.809 145.84C404.369 141.04 400.569 136.72 398.409 132.88C396.249 128.96 395.169 124.56 395.169 119.68C395.169 113.04 396.849 107.92 400.209 104.32C403.569 100.64 408.449 98.8 414.849 98.8C421.169 98.8 425.929 100.64 429.129 104.32C432.409 107.92 434.049 113.12 434.049 119.92V123.4H421.569V119.08C421.569 116.2 421.009 114.12 419.889 112.84C418.769 111.48 417.129 110.8 414.969 110.8C410.569 110.8 408.369 113.48 408.369 118.84C408.369 121.88 409.169 124.72 410.769 127.36C412.449 130 415.449 133.2 419.769 136.96C425.289 141.76 429.089 146.12 431.169 150.04C433.249 153.96 434.289 158.56 434.289 163.84C434.289 170.72 432.569 176 429.129 179.68C425.769 183.36 420.849 185.2 414.369 185.2Z" fill="#282828"/>
<path d="M266 74H462V78H266V74Z" fill="#FD8D6E"/>
<path d="M19 74H215V78H19V74Z" fill="#FD8D6E"/>
</svg>
